<svg xmlns="http://www.w3.org/2000/svg" width="1280" height="510" viewBox="0 0 1280 510" role="img">
<style>
  .bg { fill: #f8fafc; }
  .title { font: 700 26px -apple-system,BlinkMacSystemFont,"Segoe UI",Arial,"Noto Sans CJK SC",sans-serif; fill: #0f172a; }
  .label { font: 700 15px -apple-system,BlinkMacSystemFont,"Segoe UI",Arial,"Noto Sans CJK SC",sans-serif; fill: #0f172a; }
  .small { font: 400 13px -apple-system,BlinkMacSystemFont,"Segoe UI",Arial,"Noto Sans CJK SC",sans-serif; fill: #334155; }
  .tiny { font: 400 12px -apple-system,BlinkMacSystemFont,"Segoe UI",Arial,"Noto Sans CJK SC",sans-serif; fill: #475569; }
  .blue { stroke: #2563eb; fill: #eff6ff; }
  .green { stroke: #16a34a; fill: #f0fdf4; }
  .orange { stroke: #ea580c; fill: #fff7ed; }
  .purple { stroke: #7c3aed; fill: #f5f3ff; }
  .slate { stroke: #64748b; fill: #f8fafc; }
  .red { stroke: #dc2626; fill: #fef2f2; }
  .box { stroke-width: 1.6; rx: 14; }
  .arrow { stroke: #334155; stroke-width: 1.8; fill: none; marker-end: url(#arrow); }
  .dash { stroke-dasharray: 6 6; }
  .lane { stroke: #cbd5e1; stroke-width: 1.2; stroke-dasharray: 5 5; fill: none; }
</style>
<defs>
  <marker id="arrow" markerWidth="10" markerHeight="10" refX="8" refY="3" orient="auto" markerUnits="strokeWidth">
    <path d="M0,0 L0,6 L9,3 z" fill="#334155" />
  </marker>
</defs>
<rect width="100%" height="100%" class="bg"/>
<text x="32" y="44" text-anchor="start" class="title">Agent Harness 解耦边界：抽象 ports 与 infrastructure adapter 分离</text>
<rect x="50" y="170" width="230" height="104" class="box blue" rx="14"/>
<text x="165.0" y="198" text-anchor="middle" class="label">backend/agent/core</text>
<text x="165.0" y="222" text-anchor="middle" class="small">runner.py</text>
<text x="165.0" y="240" text-anchor="middle" class="small">langgraph_executor.py</text>
<text x="165.0" y="258" text-anchor="middle" class="small">只依赖抽象 ports</text>
<rect x="360" y="82" width="230" height="96" class="box purple" rx="14"/>
<text x="475.0" y="110" text-anchor="middle" class="label">backend/agent/ports.py</text>
<text x="475.0" y="134" text-anchor="middle" class="small">LocalTaskServicePort</text>
<text x="475.0" y="152" text-anchor="middle" class="small">TaskLifecyclePort</text>
<text x="475.0" y="170" text-anchor="middle" class="small">Trace / Context ports</text>
<rect x="360" y="222" width="230" height="96" class="box purple" rx="14"/>
<text x="475.0" y="250" text-anchor="middle" class="label">建模与上下文</text>
<text x="475.0" y="274" text-anchor="middle" class="small">agent/modeling</text>
<text x="475.0" y="292" text-anchor="middle" class="small">agent/planning</text>
<text x="475.0" y="310" text-anchor="middle" class="small">agent/memory</text>
<rect x="680" y="152" width="255" height="112" class="box green" rx="14"/>
<text x="807.5" y="180" text-anchor="middle" class="label">backend/infrastructure</text>
<text x="807.5" y="204" text-anchor="middle" class="small">agent_ports.py</text>
<text x="807.5" y="222" text-anchor="middle" class="small">SqlAlchemyLocalTaskServicePort</text>
<text x="807.5" y="240" text-anchor="middle" class="small">具体 adapter 实现</text>
<rect x="1008" y="82" width="220" height="96" class="box orange" rx="14"/>
<text x="1118.0" y="110" text-anchor="middle" class="label">backend/domain</text>
<text x="1118.0" y="134" text-anchor="middle" class="small">task_lifecycle.py</text>
<text x="1118.0" y="152" text-anchor="middle" class="small">services.py</text>
<text x="1118.0" y="170" text-anchor="middle" class="small">models.py</text>
<rect x="1008" y="222" width="220" height="96" class="box orange" rx="14"/>
<text x="1118.0" y="250" text-anchor="middle" class="label">外部资源</text>
<text x="1118.0" y="274" text-anchor="middle" class="small">PostgreSQL / Redis</text>
<text x="1118.0" y="292" text-anchor="middle" class="small">ToolLog / AgentRun</text>
<text x="1118.0" y="310" text-anchor="middle" class="small">TaskEvent</text>
<path d="M280,222 L360,130" class="arrow"/>
<path d="M280,222 L360,270" class="arrow"/>
<path d="M590,130 L680,186" class="arrow"/>
<path d="M590,270 L680,226" class="arrow"/>
<path d="M935,186 L1008,130" class="arrow"/>
<path d="M935,226 L1008,270" class="arrow"/>
<rect x="360" y="376" width="230" height="76" class="box slate" rx="14"/>
<text x="475.0" y="404" text-anchor="middle" class="label">compat.py</text>
<text x="475.0" y="428" text-anchor="middle" class="small">旧直接调用兼容</text>
<text x="475.0" y="446" text-anchor="middle" class="small">集中隔离，不作为主线</text>
<path d="M170,274 L360,414" class="arrow dash"/>
<path d="M590,414 L1008,270" class="arrow dash"/>
</svg>
